<svg width="24" height="24" viewBox="0 0 24 24" fill="none" xmlns="http://www.w3.org/2000/svg">
<path d="M17.4234 11.1562L9.17344 6.14062C8.43281 5.72812 7.5 6.25781 7.5 7.125V16.875C7.5 17.7375 8.42812 18.2719 9.17344 17.8594L17.4234 13.125C18.1922 12.6984 18.1922 11.5875 17.4234 11.1562ZM23.625 12C23.625 5.57812 18.4219 0.375 12 0.375C5.57812 0.375 0.375 5.57812 0.375 12C0.375 18.4219 5.57812 23.625 12 23.625C18.4219 23.625 23.625 18.4219 23.625 12ZM2.625 12C2.625 6.82031 6.82031 2.625 12 2.625C17.1797 2.625 21.375 6.82031 21.375 12C21.375 17.1797 17.1797 21.375 12 21.375C6.82031 21.375 2.625 17.1797 2.625 12Z" fill="#864BD9"/>
</svg>
