<svg width="21" height="24" viewBox="0 0 21 24" fill="none" xmlns="http://www.w3.org/2000/svg">
<path d="M1.5 21.7498C1.5 22.3466 1.73705 22.9189 2.15901 23.3408C2.58097 23.7628 3.15326 23.9998 3.75 23.9998H17.25C17.8467 23.9998 18.419 23.7628 18.841 23.3408C19.2629 22.9189 19.5 22.3466 19.5 21.7498V5.99982H1.5V21.7498ZM14.25 9.74982C14.25 9.55091 14.329 9.36015 14.4697 9.21949C14.6103 9.07884 14.8011 8.99982 15 8.99982C15.1989 8.99982 15.3897 9.07884 15.5303 9.21949C15.671 9.36015 15.75 9.55091 15.75 9.74982V20.2498C15.75 20.4487 15.671 20.6395 15.5303 20.7802C15.3897 20.9208 15.1989 20.9998 15 20.9998C14.8011 20.9998 14.6103 20.9208 14.4697 20.7802C14.329 20.6395 14.25 20.4487 14.25 20.2498V9.74982ZM9.75 9.74982C9.75 9.55091 9.82902 9.36015 9.96967 9.21949C10.1103 9.07884 10.3011 8.99982 10.5 8.99982C10.6989 8.99982 10.8897 9.07884 11.0303 9.21949C11.171 9.36015 11.25 9.55091 11.25 9.74982V20.2498C11.25 20.4487 11.171 20.6395 11.0303 20.7802C10.8897 20.9208 10.6989 20.9998 10.5 20.9998C10.3011 20.9998 10.1103 20.9208 9.96967 20.7802C9.82902 20.6395 9.75 20.4487 9.75 20.2498V9.74982ZM5.25 9.74982C5.25 9.55091 5.32902 9.36015 5.46967 9.21949C5.61032 9.07884 5.80109 8.99982 6 8.99982C6.19891 8.99982 6.38968 9.07884 6.53033 9.21949C6.67098 9.36015 6.75 9.55091 6.75 9.74982V20.2498C6.75 20.4487 6.67098 20.6395 6.53033 20.7802C6.38968 20.9208 6.19891 20.9998 6 20.9998C5.80109 20.9998 5.61032 20.9208 5.46967 20.7802C5.32902 20.6395 5.25 20.4487 5.25 20.2498V9.74982ZM20.25 1.49983H14.625L14.1844 0.623263C14.091 0.435863 13.9473 0.278226 13.7692 0.168087C13.5912 0.0579474 13.3859 -0.000325041 13.1766 -0.000174887H7.81875C7.60987 -0.000977881 7.40498 0.0570773 7.22756 0.167339C7.05015 0.277601 6.90739 0.43561 6.81562 0.623263L6.375 1.49983H0.75C0.551088 1.49983 0.360322 1.57884 0.21967 1.7195C0.0790176 1.86015 0 2.05091 0 2.24983L0 3.74983C0 3.94874 0.0790176 4.1395 0.21967 4.28016C0.360322 4.42081 0.551088 4.49983 0.75 4.49983H20.25C20.4489 4.49983 20.6397 4.42081 20.7803 4.28016C20.921 4.1395 21 3.94874 21 3.74983V2.24983C21 2.05091 20.921 1.86015 20.7803 1.7195C20.6397 1.57884 20.4489 1.49983 20.25 1.49983Z" fill="#CE0021"/>
</svg>
